<svg width="109" height="46" viewBox="0 0 109 46" fill="none" xmlns="http://www.w3.org/2000/svg">
<path d="M18.2955 24.93C18.2955 19.1646 15.2772 14.9581 10.337 14.9581C5.39687 14.9581 2.64982 19.6236 2.64982 24.93C2.64982 30.2364 5.39461 34.8555 10.337 34.8555C15.2794 34.8555 18.2955 30.6932 18.2955 24.93ZM2.97314 32.3911V45.5125H0V45.3316C0.0904377 44.9654 0.0904377 43.9129 0.0904377 42.9983V13.0408H2.92679C3.10993 13.7734 3.10993 14.6879 3.10993 15.009C3.10993 16.2435 2.60687 17.2948 2.28694 17.7074L2.65322 17.8431C3.56777 15.9213 6.31255 12.583 10.7033 12.583C16.9695 12.583 21.2698 18.1223 21.2698 24.8882C21.2698 31.6541 16.974 37.147 10.7033 37.147C7.27345 37.147 4.7118 35.5463 2.97314 32.39" fill="white"/>
<path d="M27.6681 4.34668H24.9233V36.8217H27.6681V4.34668Z" fill="white"/>
<path d="M32.9736 26.8062V13.0371H35.8552V25.7074C35.8552 33.1685 37.1824 35.3594 41.5279 35.3594C45.5535 35.3594 48.7087 32.9345 48.6634 26.3936V13.0371H51.5495L51.6411 34.4901C51.6411 35.4046 51.6863 36.0908 51.7779 36.4571V36.8234H48.8918C48.7087 36.4119 48.5719 35.7709 48.5719 34.8563C48.5719 34.2165 48.5719 33.4376 49.2117 32.1579L48.9336 32.0618L48.4351 33.4376C46.9259 37.1433 43.539 37.7334 40.567 37.7334C35.5805 37.7334 32.9736 34.8982 32.9736 26.8017" fill="white"/>
<path d="M58.9056 31.1506V15.3738H54.7432V13.036H55.1954C58.8547 13.036 60.3639 8.96627 60.3639 6.86133H63.4749C63.4749 8.82835 62.4688 12.6267 59.6788 12.6267V13.0382H68.3687V15.3738H61.7419V30.9211C61.7419 34.0774 62.3354 35.0835 64.0741 35.0835C64.8055 35.0835 65.4928 35.0835 66.6357 34.4437L67.9154 36.5011C67.0936 37.0969 65.6748 37.5073 64.394 37.5073C59.5918 37.5073 58.9056 34.1226 58.9056 31.1506Z" fill="white"/>
<path d="M89.0926 24.8841C89.0926 19.0758 85.6153 15.049 80.9046 15.049C76.056 15.049 72.625 18.7999 72.625 24.8841C72.625 30.922 76.056 34.8097 80.9046 34.8097C85.6153 34.8097 89.0926 30.922 89.0926 24.8841ZM69.6982 24.8841C69.6982 17.5202 74.41 12.5801 80.9046 12.5801C87.2624 12.5801 92.0194 17.5202 92.0194 24.8841C92.0194 32.5227 87.2624 37.2797 80.9046 37.2797C74.41 37.2797 69.6982 32.5227 69.6982 24.8841Z" fill="white"/>
<path d="M106.279 13.0574L92.7466 3.47266C92.7388 3.48386 92.7298 3.49507 92.7219 3.5074C92.08 4.37948 91.6184 5.37078 91.3641 6.42334C91.1098 7.4759 91.0679 8.5686 91.2407 9.63756C91.4136 10.7065 91.7979 11.7303 92.371 12.649C92.9442 13.5677 93.6948 14.363 94.5788 14.9883C98.3161 17.6341 103.554 16.7678 106.279 13.0541" fill="#BFE5E9"/>
<path opacity="0.9" d="M96.8896 0.452338L102.171 16.0616L102.212 16.0482C106.574 14.5465 108.935 9.86228 107.478 5.56466C106.022 1.26704 101.275 -1.03474 96.8896 0.452338Z" fill="#DB2F5C"/>
<path opacity="0.85" d="M96.7213 0.512054C92.4102 2.00586 90.0972 6.6688 91.5552 10.9339C91.5742 10.99 91.5955 11.046 91.6157 11.0998C96.0164 9.57236 98.3765 4.81304 96.8916 0.463867C96.8345 0.482918 96.7796 0.498607 96.7213 0.517657" fill="#FEC125"/>
</svg>
