<svg xmlns="http://www.w3.org/2000/svg" width="224" height="122.667" version="1.0" viewBox="0 0 168 92"><g fill="#fff"><path d="M136.5 38v26h6l-.3-26-.3-26h-5.4v26zM18.5 52.5V78H24.2l-.4-11.4-.3-11.4 3.3 3.9C36.6 70.5 52.9 62 53 45.5 53 34.9 46.1 27 36.7 27c-4.6 0-5.4.3-9.2 4.4l-4.2 4.3.5-4.3c.4-4.3.4-4.4-2.4-4.4h-2.9v25.5zm23.3-18.9c3.3 2.3 5.2 6.7 5.2 11.9C47 53.9 42.9 59 36.2 59c-3.8 0-5-.5-7.7-3.5-4.2-4.4-5.2-9.6-2.9-15.4.9-2.3 2.8-5 4.2-6.1 3-2.4 8.9-2.6 12-.4zM65.4 28.5c-3.5 1.6-4.9 3-6.3 6.8-1 2.5-.9 2.7 1.8 2.7 1.9 0 3.2-.7 4.1-2.5 2.6-4.8 12.9-5.4 16.7-1.1C83 35.9 84 37.5 84 38c0 2.3-3.4 3.7-10.3 4.3-11.2.8-15.5 3.5-16.4 10.5-1 7.2 7 13.1 15.2 11.2 4.7-1.1 8.4-3.6 9.5-6.5.5-1.2 1.3-2.6 1.9-3 1-.6.9 1.3-.4 7.7-.2 1.4.4 1.8 2.6 1.8H89V50.4c0-15.2-1.2-19.4-6.1-21.9-3.5-1.8-13.3-1.8-17.5 0zM83.1 48c-1.3 5.9-4 9.2-8.8 10.9-7 2.5-12.4-1.2-10.9-7.4.7-2.7 1.9-3.3 11-5.1 3.8-.8 7.4-1.8 8-2.4 1.6-1.6 1.7-.6.7 4zM96 39.2c0 13.9.9 18.5 4.4 21.7 5.7 5.4 14.4 4.5 20.1-2.1l3.5-4.2-.6 4.7c-.7 4.7-.6 4.7 2.2 4.7h2.9V27H123v10.5c0 11.6-1.1 15.5-5.4 19.5-3.9 3.6-10 3.4-13.2-.3-2.3-2.7-2.4-3.5-2.4-16.3V27h-6v12.2z"/></g></svg>